<?xml version="1.0" encoding="UTF-8" standalone="no"?>
<!-- Created with Inkscape (http://www.inkscape.org/) -->

<svg
   xmlns:dc="http://purl.org/dc/elements/1.1/"
   xmlns:cc="http://creativecommons.org/ns#"
   xmlns:rdf="http://www.w3.org/1999/02/22-rdf-syntax-ns#"
   xmlns:svg="http://www.w3.org/2000/svg"
   xmlns="http://www.w3.org/2000/svg"
   xmlns:sodipodi="http://sodipodi.sourceforge.net/DTD/sodipodi-0.dtd"
   xmlns:inkscape="http://www.inkscape.org/namespaces/inkscape"
   width="555"
   height="555"
   id="svg2"
   version="1.1"
   inkscape:version="0.48.4 r9939"
   sodipodi:docname="carrot-silhouette.svg">
  <defs
     id="defs4" />
  <sodipodi:namedview
     id="base"
     pagecolor="#ff66ff"
     bordercolor="#666666"
     borderopacity="1.0"
     inkscape:pageopacity="0"
     inkscape:pageshadow="2"
     inkscape:zoom="0.49497475"
     inkscape:cx="309.37181"
     inkscape:cy="255.55172"
     inkscape:document-units="px"
     inkscape:current-layer="layer1"
     showgrid="false"
     fit-margin-top="42"
     fit-margin-left="42"
     fit-margin-right="42"
     fit-margin-bottom="42"
     inkscape:window-width="1176"
     inkscape:window-height="884"
     inkscape:window-x="663"
     inkscape:window-y="19"
     inkscape:window-maximized="0" />
  <metadata
     id="metadata7">
    <rdf:RDF>
      <cc:Work
         rdf:about="">
        <dc:format>image/svg+xml</dc:format>
        <dc:type
           rdf:resource="http://purl.org/dc/dcmitype/StillImage" />
        <dc:title />
      </cc:Work>
    </rdf:RDF>
  </metadata>
  <g
     inkscape:label="Layer 1"
     inkscape:groupmode="layer"
     id="layer1"
     transform="translate(-75.383095,3.5981965)">
    <g
       id="g3232"
       transform="matrix(1.0239085,0,0,1.0239085,-2.806457,-12.179048)">
      <path
         inkscape:connector-curvature="0"
         d="m 213.58155,319.63122 c 0.34563,-0.55924 3.1832,-2.87556 6.3057,-5.14738 3.1225,-2.27182 6.67359,-5.29933 7.89131,-6.72782 2.50787,-2.94193 2.94154,-7.81842 0.93887,-10.55724 -1.17594,-1.60819 -1.77584,-1.6928 -4.72163,-0.66589 -4.47041,1.55839 -8.93128,5.94261 -8.93128,8.7778 0,1.25427 -0.89866,2.75867 -2,3.34809 -1.1,0.5887 -2,1.65109 -2,2.36087 0,0.70978 -1.125,2.34738 -2.5,3.63913 -2.9113,2.73502 -3.22328,5.49585 -0.77582,6.86552 1.76459,0.98751 4.58148,0.067 5.79285,-1.89308 z m 41.62578,45.35548 c 0.96796,-1.16631 0.37769,-3.88386 -2.96724,-13.66088 -2.29656,-6.71272 -4.17557,-12.92881 -4.17557,-13.81355 0,-2.60404 -2.86053,-4.23433 -7.58542,-4.32314 -2.95688,-0.0556 -4.41458,0.33847 -4.41458,1.19334 0,0.70197 0.40186,1.27631 0.89301,1.27631 0.49116,0 1.1715,0.72574 1.51188,1.61274 0.8746,2.27916 -2.87606,7.89731 -6.9553,10.41841 -3.99206,2.46724 -4.27962,4.42152 -1.46298,9.94261 2.57204,5.04161 5.49906,7.0155 10.4859,7.07134 2.21512,0.0248 5.37749,0.6246 7.02749,1.33288 3.36972,1.44647 5.85416,1.10513 7.64281,-1.05006 z m 44.53046,56.29355 c 1.5547,-1.30819 3.72673,-2.55186 4.82673,-2.7637 1.4819,-0.28538 2.02591,-1.22496 2.1,-3.62698 0.055,-1.783 0.89724,-4.12275 1.87165,-5.19946 1.62663,-1.79741 1.64853,-2.26762 0.26753,-5.74449 -1.9936,-5.01921 -4.66103,-5.3732 -8.20599,-1.08899 -1.5028,1.81618 -4.82505,4.43495 -7.38278,5.81947 -6.11483,3.31004 -6.6594,6.46602 -1.96346,11.37902 3.98798,4.17232 4.83795,4.29503 8.48632,1.22513 z m 9.20968,31.12853 c 2.99545,-8.02284 3.10096,-8.94145 1.08747,-9.46799 -2.55547,-0.66827 -5.09405,-5.7507 -5.4991,-11.00963 -0.42823,-5.55983 -0.97797,-6.27238 -4.83921,-6.27238 -4.88946,0 -6.58501,1.80276 -7.28913,7.75 -0.60006,5.06837 -0.53717,5.25 1.81773,5.25 3.14012,0 4.83929,1.74136 4.83929,4.95945 0,1.47645 0.84628,3.08797 2,3.80848 1.1,0.68696 2,2.2952 2,3.57388 0,1.27867 0.3,2.62486 0.66667,2.99152 1.44867,1.44867 4.4211,0.54643 5.21628,-1.58333 z m -132.88295,56.45349 c -4.04276,-0.47948 -8.00587,-2.34593 -9.02513,-4.25044 -0.5691,-1.06338 -1.68209,-1.58087 -2.78164,-1.29333 -1.00812,0.26363 -2.41911,-0.22696 -3.13553,-1.0902 -0.71643,-0.86323 -2.54795,-1.56952 -4.07007,-1.56952 -5.09744,0 -22.33275,-4.01139 -27.60389,-6.4246 -9.12675,-4.17836 -11.3817,-10.49256 -11.99056,-33.5754 -0.64869,-24.59268 2.95972,-42.78374 9.7849,-49.32852 1.18005,-1.13158 1.67898,-2.54649 1.30899,-3.71223 -0.32883,-1.03604 -0.0913,-2.83032 0.52794,-3.98729 0.61919,-1.15698 3.26754,-9.38647 5.88522,-18.28777 2.61769,-8.90131 5.511,-17.62434 6.4296,-19.38453 0.91859,-1.76019 1.67017,-3.80933 1.67017,-4.55366 0,-0.74432 1.07942,-3.57917 2.39871,-6.29966 1.31929,-2.72049 2.92486,-6.62072 3.56793,-8.66718 1.57277,-5.00508 12.71617,-23.42141 19.64777,-32.47124 16.01071,-20.90338 45.2932,-42.5549 70.38559,-52.0432 10.26236,-3.88055 31.47871,-8.22962 40.23804,-8.24825 12.77969,-0.0272 31.71443,6.86519 45.26196,16.47569 12.999,9.22138 30.9982,31.65144 36.53393,45.52748 5.79577,14.52788 9.07778,26.64332 9.61146,35.48036 0.51444,8.51853 0.30004,9.84076 -4.00768,24.716 -2.50315,8.64381 -5.19146,16.96881 -5.97401,18.5 -0.78255,1.5312 -1.75398,4.359 -2.15873,6.284 -0.40476,1.925 -1.14748,4.0124 -1.65049,4.63867 -0.55542,0.69151 -0.51968,2.85138 0.091,5.5 1.41848,6.15196 1.28834,11.51295 -0.35591,14.66099 -1.57756,3.02036 -15.52303,15.97299 -20.37264,18.92221 -1.72614,1.04973 -4.07734,3.10222 -5.22489,4.5611 -1.14756,1.45888 -6.22772,5.34623 -11.28926,8.63856 -5.06154,3.29232 -10.15194,6.90879 -11.31199,8.03658 -1.16005,1.12779 -4.31005,3.2145 -7,4.63714 -2.68995,1.42263 -5.56581,3.15103 -6.39081,3.84088 -2.53263,2.11778 -32.46975,16.56387 -34.32584,16.56387 -0.95948,0 -2.76732,0.67017 -4.01743,1.48928 -2.16532,1.41877 -9.69644,4.18002 -28.74983,10.54098 -16.11097,5.37864 -37.32958,7.90215 -51.90688,6.17323 z"
         style="fill:#fcfcfc"
         id="path3209" />
      <path
         inkscape:connector-curvature="0"
         id="path3207"
         d="m 500.64574,350.75004 c 7.29276,-18.46342 -26.10001,-14.23697 -22.06392,-10.0958 -4.23013,-28.76958 -34.1599,-3.55765 -46.40653,-6.71395 -9.00847,-23.6398 -41.08841,-8.98044 -57.82081,-22.29157 -16.27261,-17.67045 -31.31775,-36.20158 -49.30467,-52.07882 -16.18388,-17.60633 1.92068,-31.59853 19.845,-30.43664 23.70595,-22.71539 -19.51003,-42.53055 -23.96859,-64.37576 -6.84078,-34.7734 -28.22058,-65.86189 -27.66978,-102.24636 6.99957,-29.41572 22.35811,8.13418 29.00151,17.04479 19.37726,14.13908 45.59185,19.26044 68.94752,14.63498 11.62015,-11.45003 36.428,-26.36676 28.96471,-45.01958 14.21406,27.48848 49.83594,25.56053 72.12321,42.41477 3.54036,15.04799 8.55481,29.85797 27.67618,32.22652 31.22245,9.38668 18.42396,46.51479 22.71578,70.0808 9.47076,19.5059 40.92436,27.06984 32.21556,55.49227 -2.08781,23.38073 -11.8216,53.86604 -39.0804,56.73898 -28.92048,-9.24929 -22.40112,24.38834 -28.03454,40.44233 -1.69154,2.27509 -4.32198,3.82696 -7.14023,4.18304 z"
         style="fill:#fcfcfc" />
    </g>
  </g>
</svg>
