<?xml version="1.0" encoding="UTF-8" standalone="no"?>
<!-- Created with Inkscape (http://www.inkscape.org/) -->

<svg
   xmlns:dc="http://purl.org/dc/elements/1.1/"
   xmlns:cc="http://creativecommons.org/ns#"
   xmlns:rdf="http://www.w3.org/1999/02/22-rdf-syntax-ns#"
   xmlns:svg="http://www.w3.org/2000/svg"
   xmlns="http://www.w3.org/2000/svg"
   xmlns:sodipodi="http://sodipodi.sourceforge.net/DTD/sodipodi-0.dtd"
   xmlns:inkscape="http://www.inkscape.org/namespaces/inkscape"
   width="30"
   height="30"
   id="svg2"
   version="1.1"
   inkscape:version="0.48.2 r9819"
   sodipodi:docname="bug.svg">
  <defs
     id="defs4" />
  <sodipodi:namedview
     id="base"
     pagecolor="#ffffff"
     bordercolor="#666666"
     borderopacity="1.0"
     inkscape:pageopacity="0.0"
     inkscape:pageshadow="2"
     inkscape:zoom="16.066667"
     inkscape:cx="14.127563"
     inkscape:cy="15"
     inkscape:document-units="px"
     inkscape:current-layer="layer1"
     showgrid="false"
     inkscape:snap-grids="false"
     inkscape:window-width="1280"
     inkscape:window-height="698"
     inkscape:window-x="0"
     inkscape:window-y="0"
     inkscape:window-maximized="1" />
  <metadata
     id="metadata7">
    <rdf:RDF>
      <cc:Work
         rdf:about="">
        <dc:format>image/svg+xml</dc:format>
        <dc:type
           rdf:resource="http://purl.org/dc/dcmitype/StillImage" />
        <dc:title></dc:title>
      </cc:Work>
    </rdf:RDF>
  </metadata>
  <g
     inkscape:label="Layer 1"
     inkscape:groupmode="layer"
     id="layer1"
     transform="translate(0,-1022.3622)">
    <path
       sodipodi:type="arc"
       style="fill:#ffffff;fill-opacity:0;fill-rule:evenodd;stroke:#000000;stroke-width:1.64919650999999967;stroke-linecap:butt;stroke-linejoin:miter;stroke-miterlimit:4;stroke-opacity:1;stroke-dasharray:none"
       id="path2985"
       sodipodi:cx="14.408713"
       sodipodi:cy="16.804979"
       sodipodi:rx="7.8112035"
       sodipodi:ry="10.145228"
       d="m 22.219917,16.804979 a 7.8112035,10.145228 0 1 1 -15.6224071,0 7.8112035,10.145228 0 1 1 15.6224071,0 z"
       transform="matrix(1,0,0,0.82725179,0.74688797,1028.8821)" />
    <path
       transform="matrix(0.46021458,0,0,0.35357652,8.5245013,1024.6146)"
       d="m 22.219917,16.804979 a 7.8112035,10.145228 0 1 1 -15.6224071,0 7.8112035,10.145228 0 1 1 15.6224071,0 z"
       sodipodi:ry="10.145228"
       sodipodi:rx="7.8112035"
       sodipodi:cy="16.804979"
       sodipodi:cx="14.408713"
       id="path3776"
       style="fill:#ffffff;fill-opacity:0;fill-rule:evenodd;stroke:#000000;stroke-width:3.71851348999999987;stroke-linecap:butt;stroke-linejoin:miter;stroke-miterlimit:4;stroke-opacity:1;stroke-dasharray:none"
       sodipodi:type="arc" />
    <path
       style="fill:#000000;fill-opacity:1;stroke-width:0.2;stroke-miterlimit:4;stroke-dasharray:none"
       id="path3780"
       d="m 11.654025,1028.2197 c -0.149426,-0.2513 -0.307249,-0.4956 -0.44301,-0.7554 -0.18294,-0.3676 -0.408936,-0.7066 -0.658094,-1.0319 -0.187268,-0.2461 -0.348784,-0.4563 -0.5906913,-0.6521 -0.2297103,-0.1762 -0.4910658,-0.3009 -0.7513564,-0.424 -0.2880823,-0.1061 -0.5625051,-0.2445 -0.8503548,-0.3507 -0.3088471,-0.1173 -0.62082,-0.2197 -0.9463089,-0.2776 -0.3258709,-0.066 -0.6574638,-0.091 -0.9889293,-0.1046 -0.2841534,-0 -0.5702104,-0.025 -0.852832,0.01 -0.048934,0.01 -0.098626,0.017 -0.146801,0.031 -0.085279,0.024 -0.2014452,0.071 -0.2803558,0.1112 -0.04375,0.023 -0.1705012,0.098 -0.1275164,0.075 0.6557967,-0.3657 0.8341965,-0.5032 0.5177252,-0.2718 -0.2179972,0.1678 -0.3810317,0.386 -0.5272827,0.616 -0.1440609,0.2729 -0.2450012,0.5665 -0.3350717,0.861 -0.061165,0.201 -0.084219,0.4092 -0.094498,0.6181 -0.00542,0.1372 -0.00296,0.2743 -0.00328,0.4115 -1.555e-4,0.1173 0.00455,0.2345 0.00334,0.3518 -4.744e-4,0.057 3.102e-4,0.1134 -4.132e-4,0.1702 0,0 -0.8163553,0.416 -0.8163553,0.416 l 0,0 c -7.661e-4,-0.056 -5.8e-6,-0.113 -6.487e-4,-0.1695 -0.00164,-0.1178 0.00221,-0.2357 7.166e-4,-0.3535 -0.00173,-0.1393 -0.00302,-0.2789 0.00357,-0.418 0.014002,-0.2175 0.039606,-0.4356 0.1013774,-0.6453 0.090073,-0.3008 0.2009116,-0.5956 0.3284488,-0.8825 0.1388001,-0.2407 0.2978614,-0.4665 0.5127126,-0.6464 0.3791958,-0.2964 0.1266578,-0.107 1.0026238,-0.6158 0.1766129,-0.1026 0.3748797,-0.1622 0.5765376,-0.1887 0.2862334,-0.023 0.5737793,-0.01 0.860521,0 0.3323815,0.021 0.6639766,0.055 0.9914087,0.1172 0.3278563,0.064 0.6429568,0.1734 0.9556032,0.29 0.2889281,0.1108 0.5712733,0.2385 0.858117,0.3545 0.2659489,0.1272 0.5328819,0.2562 0.7645539,0.4415 0.113993,0.095 0.22265,0.1912 0.317199,0.3065 0.07035,0.086 0.104535,0.146 0.170841,0.2358 0.0335,0.045 0.0689,0.089 0.103348,0.1339 0.245876,0.3322 0.465873,0.6807 0.660848,1.0453 0.143736,0.2543 0.301793,0.4981 0.480959,0.7291 0,0 -0.796656,0.4617 -0.796656,0.4617 z"
       inkscape:connector-curvature="0" />
    <path
       inkscape:connector-curvature="0"
       d="m 18.246064,1028.2197 c 0.149426,-0.2513 0.307249,-0.4956 0.443009,-0.7554 0.182941,-0.3676 0.408937,-0.7066 0.658094,-1.0319 0.187268,-0.2461 0.348785,-0.4563 0.590692,-0.6521 0.22971,-0.1762 0.491066,-0.3009 0.751357,-0.424 0.288082,-0.1061 0.562505,-0.2445 0.850354,-0.3507 0.308847,-0.1173 0.62082,-0.2197 0.946309,-0.2776 0.325871,-0.066 0.657464,-0.091 0.98893,-0.1046 0.284153,0 0.57021,-0.025 0.852831,0.01 0.04893,0.01 0.09863,0.017 0.146801,0.031 0.08528,0.024 0.201446,0.071 0.280356,0.1112 0.04375,0.023 0.170501,0.098 0.127517,0.075 -0.655797,-0.3657 -0.834197,-0.5032 -0.517726,-0.2718 0.217998,0.1678 0.381032,0.386 0.527283,0.616 0.144061,0.2729 0.245001,0.5665 0.335072,0.861 0.06116,0.201 0.08422,0.4092 0.0945,0.6181 0.0054,0.1372 0.003,0.2743 0.0033,0.4115 1.55e-4,0.1173 -0.0046,0.2345 -0.0033,0.3518 4.74e-4,0.057 -3.1e-4,0.1134 4.13e-4,0.1702 0,0 0.816355,0.416 0.816355,0.416 l 0,0 c 7.66e-4,-0.056 6e-6,-0.113 6.49e-4,-0.1695 0.0016,-0.1178 -0.0022,-0.2357 -7.17e-4,-0.3535 0.0017,-0.1393 0.003,-0.2789 -0.0036,-0.418 -0.014,-0.2175 -0.03961,-0.4356 -0.101378,-0.6453 -0.09007,-0.3008 -0.200911,-0.5956 -0.328448,-0.8825 -0.138801,-0.2407 -0.297862,-0.4665 -0.512713,-0.6464 -0.379196,-0.2964 -0.126658,-0.107 -1.002624,-0.6158 -0.176613,-0.1026 -0.37488,-0.1622 -0.576537,-0.1887 -0.286234,-0.023 -0.57378,-0.01 -0.860521,0 -0.332382,0.021 -0.663977,0.055 -0.991409,0.1172 -0.327856,0.064 -0.642957,0.1734 -0.955603,0.29 -0.288928,0.1108 -0.571274,0.2385 -0.858117,0.3545 -0.265949,0.1272 -0.532883,0.2562 -0.764555,0.4415 -0.113993,0.095 -0.22265,0.1912 -0.317199,0.3065 -0.07035,0.086 -0.104535,0.146 -0.170841,0.2358 -0.0335,0.045 -0.0689,0.089 -0.103348,0.1339 -0.245876,0.3322 -0.465873,0.6807 -0.660848,1.0453 -0.143736,0.2543 -0.301793,0.4981 -0.480959,0.7291 0,0 0.796656,0.4617 0.796656,0.4617 z"
       id="path3782"
       style="fill:#000000;fill-opacity:1;stroke-width:0.1;stroke-miterlimit:4;stroke-dasharray:none" />
    <path
       style="fill:#ffffff;stroke:#000000;stroke-width:1.50000000000000000;stroke-linecap:butt;stroke-linejoin:miter;stroke-miterlimit:4;stroke-opacity:1;stroke-dasharray:none;fill-opacity:0"
       d="m 21.348548,1037.7045 4.481328,-2.0539 3.672199,1.3693 0,0"
       id="path3784"
       inkscape:connector-curvature="0" />
    <path
       inkscape:connector-curvature="0"
       id="path3786"
       d="m 8.8381746,1037.7045 -4.481328,-2.0539 -3.67219901,1.3693 0,0"
       style="fill:#ffffff;stroke:#000000;stroke-width:1.50000000000000000;stroke-linecap:butt;stroke-linejoin:miter;stroke-miterlimit:4;stroke-opacity:1;stroke-dasharray:none;fill-opacity:0" />
    <path
       inkscape:connector-curvature="0"
       id="path3788"
       d="m 21.348548,1047.6506 4.481328,2.0539 3.672199,-1.3693 0,0"
       style="fill:#ffffff;stroke:#000000;stroke-width:1.50000000000000000;stroke-linecap:butt;stroke-linejoin:miter;stroke-miterlimit:4;stroke-opacity:1;stroke-dasharray:none;fill-opacity:0" />
    <path
       style="fill:#ffffff;stroke:#000000;stroke-width:1.50000000000000000;stroke-linecap:butt;stroke-linejoin:miter;stroke-miterlimit:4;stroke-opacity:1;stroke-dasharray:none;fill-opacity:0"
       d="m 8.8381746,1047.6506 -4.481328,2.0539 -3.67219901,-1.3693 0,0"
       id="path3790"
       inkscape:connector-curvature="0" />
    <path
       style="fill:#ffffff;stroke:#000000;stroke-width:1.50000000000000000;stroke-linecap:butt;stroke-linejoin:miter;stroke-miterlimit:4;stroke-opacity:1;stroke-dasharray:none;fill-opacity:0"
       d="m 23.589212,1042.7149 5.975103,-0.3112"
       id="path3792"
       inkscape:connector-curvature="0" />
    <path
       inkscape:connector-curvature="0"
       id="path3794"
       d="m 6.7219913,1042.7149 -5.97510295,-0.3112"
       style="fill:#ffffff;stroke:#000000;stroke-width:1.50000000000000000;stroke-linecap:butt;stroke-linejoin:miter;stroke-miterlimit:4;stroke-opacity:1;stroke-dasharray:none;fill-opacity:0" />
  </g>
</svg>
