<?xml version="1.0" encoding="UTF-8" standalone="no"?>
<!-- Created with Inkscape (http://www.inkscape.org/) -->

<svg
   xmlns:dc="http://purl.org/dc/elements/1.1/"
   xmlns:cc="http://creativecommons.org/ns#"
   xmlns:rdf="http://www.w3.org/1999/02/22-rdf-syntax-ns#"
   xmlns:svg="http://www.w3.org/2000/svg"
   xmlns="http://www.w3.org/2000/svg"
   xmlns:sodipodi="http://sodipodi.sourceforge.net/DTD/sodipodi-0.dtd"
   xmlns:inkscape="http://www.inkscape.org/namespaces/inkscape"
   width="30"
   height="30"
   id="svg2"
   version="1.1"
   inkscape:version="0.48.2 r9819"
   sodipodi:docname="hog.svg"
   inkscape:export-filename="/Volumes/aoliner/Developer/Carat/img/hog.png"
   inkscape:export-xdpi="90"
   inkscape:export-ydpi="90">
  <defs
     id="defs4" />
  <sodipodi:namedview
     id="base"
     pagecolor="#ffffff"
     bordercolor="#666666"
     borderopacity="1.0"
     inkscape:pageopacity="0"
     inkscape:pageshadow="2"
     inkscape:zoom="16.066667"
     inkscape:cx="14.127563"
     inkscape:cy="15"
     inkscape:document-units="px"
     inkscape:current-layer="layer1"
     showgrid="false"
     inkscape:snap-grids="false"
     inkscape:window-width="1280"
     inkscape:window-height="698"
     inkscape:window-x="0"
     inkscape:window-y="0"
     inkscape:window-maximized="1" />
  <metadata
     id="metadata7">
    <rdf:RDF>
      <cc:Work
         rdf:about="">
        <dc:format>image/svg+xml</dc:format>
        <dc:type
           rdf:resource="http://purl.org/dc/dcmitype/StillImage" />
        <dc:title></dc:title>
      </cc:Work>
    </rdf:RDF>
  </metadata>
  <g
     inkscape:label="Layer 1"
     inkscape:groupmode="layer"
     id="layer1"
     transform="translate(0,-1022.3622)">
    <path
       sodipodi:type="arc"
       style="fill:#ffffff;fill-opacity:0;fill-rule:evenodd;stroke:#000000;stroke-width:1.64919651;stroke-linecap:butt;stroke-linejoin:miter;stroke-miterlimit:4;stroke-opacity:1;stroke-dasharray:none"
       id="path2985"
       sodipodi:cx="14.408713"
       sodipodi:cy="16.804979"
       sodipodi:rx="7.8112035"
       sodipodi:ry="10.145228"
       d="m 22.219917,16.804979 a 7.8112035,10.145228 0 1 1 -15.6224071,0 7.8112035,10.145228 0 1 1 15.6224071,0 z"
       transform="matrix(1.4665352,0,0,1.0576209,-5.9752842,1022.5751)" />
    <path
       transform="matrix(0.68556915,0,0,0.45960105,5.2774317,1036.0279)"
       d="m 22.219917,16.804979 a 7.8112035,10.145228 0 1 1 -15.6224071,0 7.8112035,10.145228 0 1 1 15.6224071,0 z"
       sodipodi:ry="10.145228"
       sodipodi:rx="7.8112035"
       sodipodi:cy="16.804979"
       sodipodi:cx="14.408713"
       id="path3776"
       style="fill:#ffffff;fill-opacity:0;fill-rule:evenodd;stroke:#000000;stroke-width:2.47092931;stroke-linecap:butt;stroke-linejoin:miter;stroke-miterlimit:4;stroke-opacity:1;stroke-dasharray:none"
       sodipodi:type="arc" />
    <path
       style="fill:none;stroke:#000000;stroke-width:1px;stroke-linecap:butt;stroke-linejoin:miter;stroke-opacity:1"
       d="m 5.726141,1033.2232 -1.4315352,-8.7759 6.3485482,5.3527 0,0 0,0"
       id="path3836"
       inkscape:connector-curvature="0" />
    <path
       inkscape:connector-curvature="0"
       id="path3838"
       d="m 24.709544,1033.2232 1.431535,-8.7759 -6.348548,5.3527 0,0 0,0"
       style="fill:none;stroke:#000000;stroke-width:1px;stroke-linecap:butt;stroke-linejoin:miter;stroke-opacity:1" />
    <path
       sodipodi:type="arc"
       style="fill:#000000;fill-opacity:1;fill-rule:evenodd;stroke:#000000;stroke-width:3.71851348999999987;stroke-linecap:butt;stroke-linejoin:miter;stroke-miterlimit:4;stroke-opacity:1;stroke-dasharray:none"
       id="path3840"
       sodipodi:cx="14.408713"
       sodipodi:cy="16.804979"
       sodipodi:rx="7.8112035"
       sodipodi:ry="10.145228"
       d="m 22.219917,16.804979 a 7.8112035,10.145228 0 1 1 -15.6224071,0 7.8112035,10.145228 0 1 1 15.6224071,0 z"
       transform="matrix(0.09321602,0,0,0.20291198,12.069739,1040.41)" />
    <path
       transform="matrix(0.09321602,0,0,0.20291198,15.571814,1040.41)"
       d="m 22.219917,16.804979 a 7.8112035,10.145228 0 1 1 -15.6224071,0 7.8112035,10.145228 0 1 1 15.6224071,0 z"
       sodipodi:ry="10.145228"
       sodipodi:rx="7.8112035"
       sodipodi:cy="16.804979"
       sodipodi:cx="14.408713"
       id="path3842"
       style="fill:#000000;fill-opacity:1;fill-rule:evenodd;stroke:#000000;stroke-width:3.71851348999999987;stroke-linecap:butt;stroke-linejoin:miter;stroke-miterlimit:4;stroke-opacity:1;stroke-dasharray:none"
       sodipodi:type="arc" />
    <path
       sodipodi:type="arc"
       style="fill:#000000;fill-opacity:1;fill-rule:evenodd;stroke:#000000;stroke-width:3.71851348999999987;stroke-linecap:butt;stroke-linejoin:miter;stroke-miterlimit:4;stroke-opacity:1;stroke-dasharray:none"
       id="path3844"
       sodipodi:cx="14.408713"
       sodipodi:cy="16.804979"
       sodipodi:rx="7.8112035"
       sodipodi:ry="10.145228"
       d="m 22.219917,16.804979 a 7.8112035,10.145228 0 1 1 -15.6224071,0 7.8112035,10.145228 0 1 1 15.6224071,0 z"
       transform="matrix(0.11941602,0,0,0.10345247,10.540779,1034.4715)" />
    <path
       transform="matrix(0.11941602,0,0,0.10345247,16.540779,1034.4715)"
       d="m 22.219917,16.804979 a 7.8112035,10.145228 0 1 1 -15.6224071,0 7.8112035,10.145228 0 1 1 15.6224071,0 z"
       sodipodi:ry="10.145228"
       sodipodi:rx="7.8112035"
       sodipodi:cy="16.804979"
       sodipodi:cx="14.408713"
       id="path3846"
       style="fill:#000000;fill-opacity:1;fill-rule:evenodd;stroke:#000000;stroke-width:3.71851348999999987;stroke-linecap:butt;stroke-linejoin:miter;stroke-miterlimit:4;stroke-opacity:1;stroke-dasharray:none"
       sodipodi:type="arc" />
  </g>
</svg>
