<?xml version="1.0" encoding="UTF-8" standalone="no"?>
<!-- Created with Inkscape (http://www.inkscape.org/) -->

<svg
   xmlns:dc="http://purl.org/dc/elements/1.1/"
   xmlns:cc="http://creativecommons.org/ns#"
   xmlns:rdf="http://www.w3.org/1999/02/22-rdf-syntax-ns#"
   xmlns:svg="http://www.w3.org/2000/svg"
   xmlns="http://www.w3.org/2000/svg"
   xmlns:sodipodi="http://sodipodi.sourceforge.net/DTD/sodipodi-0.dtd"
   xmlns:inkscape="http://www.inkscape.org/namespaces/inkscape"
   width="512"
   height="512"
   id="svg2"
   version="1.1"
   inkscape:version="0.48.2 r9819"
   sodipodi:docname="icon.svg"
   inkscape:export-filename="/Users/oliner/Documents/Files/UCB/carat/trunk/img/icon72.png"
   inkscape:export-xdpi="12.66"
   inkscape:export-ydpi="12.66">
  <defs
     id="defs4" />
  <sodipodi:namedview
     id="base"
     pagecolor="#663300"
     bordercolor="#666666"
     borderopacity="1.0"
     inkscape:pageopacity="1"
     inkscape:pageshadow="2"
     inkscape:zoom="0.5"
     inkscape:cx="212.87675"
     inkscape:cy="256"
     inkscape:document-units="px"
     inkscape:current-layer="layer1"
     showgrid="false"
     inkscape:window-width="1280"
     inkscape:window-height="700"
     inkscape:window-x="0"
     inkscape:window-y="0"
     inkscape:window-maximized="1" />
  <metadata
     id="metadata7">
    <rdf:RDF>
      <cc:Work
         rdf:about="">
        <dc:format>image/svg+xml</dc:format>
        <dc:type
           rdf:resource="http://purl.org/dc/dcmitype/StillImage" />
        <dc:title></dc:title>
      </cc:Work>
    </rdf:RDF>
  </metadata>
  <g
     inkscape:label="Layer 1"
     inkscape:groupmode="layer"
     id="layer1"
     transform="translate(0,-540.36218)">
    <path
       style="fill:#ff6600;fill-opacity:1;stroke:#000000;stroke-width:5;stroke-linecap:butt;stroke-linejoin:miter;stroke-miterlimit:4;stroke-opacity:1;stroke-dasharray:none"
       d="m 208.5016,707.68585 93.21596,1.14295 42.6772,18.28711 -42.6772,18.28711 -92.09287,-1.14294 -44.92336,-18.28711 z"
       id="path3800"
       inkscape:connector-curvature="0" />
    <path
       style="fill:#ff6600;fill-opacity:1;stroke:#000000;stroke-width:5;stroke-linecap:butt;stroke-linejoin:miter;stroke-miterlimit:4;stroke-opacity:1;stroke-dasharray:none"
       d="m 345.51784,727.11591 59.52345,40.00307 -75.24662,29.71655 -25.83093,-51.43251 z"
       id="path3804"
       inkscape:connector-curvature="0" />
    <path
       style="fill:#ff6600;fill-opacity:1;stroke:#000000;stroke-width:5;stroke-linecap:butt;stroke-linejoin:miter;stroke-miterlimit:4;stroke-opacity:1;stroke-dasharray:none"
       d="m 163.57824,725.97297 -59.52344,41.14601 74.12353,30.8595 31.44636,-53.7184 z"
       id="path3806"
       inkscape:connector-curvature="0" />
    <path
       style="fill:#ff6600;fill-opacity:1;stroke:#000000;stroke-width:5;stroke-linecap:butt;stroke-linejoin:miter;stroke-miterlimit:4;stroke-opacity:1;stroke-dasharray:none"
       d="m 209.62469,744.26008 93.21597,0 26.95401,53.7184 -150.49325,1.14295 z"
       id="path3808"
       inkscape:connector-curvature="0" />
    <path
       style="fill:#009900;fill-opacity:1;stroke:#000000;stroke-width:5;stroke-linecap:butt;stroke-linejoin:miter;stroke-miterlimit:4;stroke-opacity:1;stroke-dasharray:none"
       d="M 210.74777,745.40302 z"
       id="path3810"
       inkscape:connector-curvature="0" />
    <path
       style="fill:#ff6600;fill-opacity:1;stroke:#000000;stroke-width:5;stroke-linecap:butt;stroke-linejoin:miter;stroke-miterlimit:4;stroke-opacity:1;stroke-dasharray:none"
       d="M 105.17788,768.26192 257.9173,1037.9968 179.30142,796.83553 z"
       id="path3812"
       inkscape:connector-curvature="0" />
    <path
       style="fill:#ff6600;fill-opacity:1;stroke:#000000;stroke-width:5;stroke-linecap:butt;stroke-linejoin:miter;stroke-miterlimit:4;stroke-opacity:1;stroke-dasharray:none"
       d="m 179.30142,797.97848 150.49325,2.28589 -69.63121,236.58953 z"
       id="path3814"
       inkscape:connector-curvature="0" />
    <path
       style="fill:#ff6600;fill-opacity:1;stroke:#000000;stroke-width:5;stroke-linecap:butt;stroke-linejoin:miter;stroke-miterlimit:4;stroke-opacity:1;stroke-dasharray:none"
       d="m 405.04129,768.26192 -74.12354,29.71656 -70.75429,238.87542 z"
       id="path3816"
       inkscape:connector-curvature="0" />
    <path
       style="fill:#009900;fill-opacity:1;stroke:#000000;stroke-width:4;stroke-linecap:butt;stroke-linejoin:miter;stroke-opacity:1;stroke-miterlimit:4;stroke-dasharray:none"
       d="m 259.87552,727.19206 c 3.4e-4,-29.1978 3.75339,-40.51599 17.44699,-64.81497 7.29968,-11.59265 25.00687,-38.2473 33.78324,-49.00023 10.66444,-16.30953 24.05759,-35.03952 45.10043,-37.17788 24.64964,-2.49614 47.40266,14.74884 57.01328,36.64821 9.9614,23.64772 18.15351,48.78534 34.58818,68.96704 9.32486,11.34752 22.05836,20.19697 36.60058,23.13274 7.59782,0.57284 30.05327,13.58476 19.18147,14.6884 -14.40233,5.47526 -47.53014,-1.79666 -57.79619,-13.35093 -16.40512,-15.54361 -23.07293,-38.28361 -38.36715,-54.62672 -13.07773,-12.67587 -32.8408,-47.12301 -50.55333,-42.34403 -18.68986,-3.19503 -34.64369,39.55962 -44.81114,53.6603 -7.38679,10.25722 -15.16183,20.30381 -22.06804,30.86278 -6.18708,11.56858 -9.34823,26.86692 -22.32628,32.91566 -2.4996,0.83406 -5.21265,0.92424 -7.79204,0.43963 z"
       id="path3899"
       inkscape:connector-curvature="0"
       sodipodi:nodetypes="ccccccccccccccc" />
    <path
       sodipodi:nodetypes="ccccccccccccccc"
       inkscape:connector-curvature="0"
       id="path3910"
       d="m 258.50786,727.19206 c -3.4e-4,-29.1978 -3.75339,-40.51599 -17.44699,-64.81497 -7.29968,-11.59265 -25.00687,-38.2473 -33.78324,-49.00023 -10.66444,-16.30953 -24.05759,-35.03952 -45.10043,-37.17788 -24.64964,-2.49614 -47.40266,14.74884 -57.01328,36.64821 -9.9614,23.64772 -18.15351,48.78534 -34.58818,68.96704 -9.32486,11.34752 -22.05836,20.19697 -36.60058,23.13274 -7.59782,0.57284 -30.05327,13.58476 -19.18147,14.6884 14.40233,5.47526 47.53014,-1.79666 57.79619,-13.35093 16.40512,-15.54361 23.07293,-38.28361 38.36715,-54.62672 13.07773,-12.67587 32.8408,-47.12301 50.55333,-42.34403 18.68986,-3.19503 34.64369,39.55962 44.81114,53.6603 7.38679,10.25722 15.16183,20.30381 22.06804,30.86278 6.18708,11.56858 9.34823,26.86692 22.32628,32.91566 2.4996,0.83406 5.21265,0.92424 7.79204,0.43963 z"
       style="fill:#009900;fill-opacity:1;stroke:#000000;stroke-width:4;stroke-linecap:butt;stroke-linejoin:miter;stroke-opacity:1;stroke-miterlimit:4;stroke-dasharray:none" />
  </g>
</svg>
